<svg width="60" height="12" viewBox="0 0 60 12" fill="none" xmlns="http://www.w3.org/2000/svg">
<g id="Layer_1" clip-path="url(#clip0_406_6043)">
<path id="Vector" d="M7.14631 10.9652C6.39578 11.6158 5.40771 12 4.31572 12C1.85957 12 0.00219727 10.0465 0.00219727 7.57648C0.00219727 5.10642 1.86122 3.15297 4.31572 3.15297C5.40771 3.15297 6.39578 3.5372 7.14631 4.20396V1.41262C7.14631 0.453653 7.55375 0 8.4313 0H9.02183V11.9839L7.14631 12V10.9652ZM7.14631 7.57648V7.46024C7.07868 5.97498 5.95205 4.85618 4.52026 4.85618C3.08847 4.85618 1.89421 6.02502 1.89421 7.57648C1.89421 9.12794 3.05383 10.2968 4.52026 10.2968C5.98669 10.2968 7.14631 9.12794 7.14631 7.57648Z" fill="#1C52A0"/>
<path id="Vector_2" d="M14.5409 10.2971C13.058 10.2971 11.9148 9.07825 11.9148 7.57684C11.9148 6.07542 13.0745 4.85654 14.5409 4.85654C14.9153 4.85654 15.3772 4.95663 15.6659 5.15682C15.3871 5.47647 14.5557 6.3079 14.277 6.62756C13.8431 7.1248 13.3367 7.55908 13.5347 8.28395C13.5578 8.3679 13.6831 8.60038 13.8332 8.75214C13.9834 8.90389 14.3298 9.16704 14.3298 9.16704L14.465 9.02336C14.465 9.02336 14.6085 8.85707 14.6613 8.79411C15.4432 7.88519 16.776 6.46611 17.5579 5.55719C17.7624 5.3231 17.8301 5.12292 17.8301 4.88882C17.8301 4.62244 17.6931 4.37221 17.4886 4.18816C16.908 3.67155 15.8688 3.15332 14.5392 3.15332C11.9478 3.15332 10.0195 5.10677 10.0195 7.57684C10.0195 10.0469 11.9643 12.0004 14.5392 12.0004C15.9892 12.0004 17.1653 11.382 17.8136 10.6152L16.3471 9.54643C15.938 9.96295 15.3409 10.2971 14.5392 10.2971H14.5409Z" fill="#1C52A0"/>
<path id="Vector_3" d="M19.019 4.0895V3.1709H20.8896L20.8945 4.0895V8.7455L25.1767 3.82151C25.6155 3.39207 25.8662 3.1709 26.6778 3.1709H27.905L26.7437 4.55607L20.6553 11.666C20.4508 11.9001 20.2627 11.9824 19.9559 11.9824C19.4264 11.9824 19.0173 11.5659 19.0173 11.0477V4.0895H19.019Z" fill="#1C52A0"/>
<path id="Vector_4" d="M26.8806 4.25579C26.8806 3.65523 27.3755 3.1709 27.9891 3.1709C28.6027 3.1709 29.0976 3.65523 29.0976 4.25579C29.0976 4.85636 28.6027 5.34068 27.9891 5.34068C27.3755 5.34068 26.8806 4.84021 26.8806 4.25579ZM27.0505 7.22633V6.06233H28.926V10.9573C28.926 11.4739 28.5169 11.892 27.9874 11.892C27.4579 11.892 27.0489 11.4755 27.0489 10.9573V7.22633H27.0505Z" fill="#1C52A0"/>
<path id="Vector_5" d="M30.2461 5.02598V3.31954H31.1154L31.729 3.32115V2.06997C31.729 1.55336 31.7257 1.15137 31.7257 1.15137C33.1773 1.15137 33.6045 1.75032 33.6045 2.58982V3.32115H35.6005C36.0772 3.32115 36.4698 3.68762 36.4698 4.17195C36.4698 4.65628 36.0772 5.02275 35.6005 5.02275H33.6045V8.04333C33.6045 9.51246 34.4408 10.2632 35.6005 10.2632L36.4698 10.2712V11.9825H35.6005C33.4 11.9825 31.729 10.4634 31.729 8.04333V5.02275H31.1154L30.2461 5.02598Z" fill="#1C52A0"/>
<path id="Vector_6" d="M37.6919 7.05958C37.6919 4.68961 39.3117 3.1543 41.5287 3.1543C42.0054 3.1543 42.398 3.52077 42.398 4.0051C42.398 4.48942 42.0054 4.8559 41.5287 4.8559C40.4037 4.8559 39.5674 5.59046 39.5674 7.05958V11.0488L39.574 11.9836H37.6919V7.05958Z" fill="#1C52A0"/>
<path id="Vector_7" d="M49.3558 10.9655C48.6052 11.6161 47.6172 12.0004 46.5252 12.0004C44.069 12.0004 42.2117 10.0469 42.2117 7.57684C42.2117 5.10677 44.0707 3.15332 46.5252 3.15332C47.6172 3.15332 48.6052 3.53755 49.3558 4.20431V4.08807C49.3558 3.57146 49.7649 3.16946 50.2944 3.16946H51.2329V11.9987H49.3574V10.9639L49.3558 10.9655ZM49.3558 7.57684V7.4606C49.2882 5.97533 48.1615 4.85654 46.7297 4.85654C45.2979 4.85654 44.1037 6.02538 44.1037 7.57684C44.1037 9.1283 45.2633 10.2971 46.7297 10.2971C48.1962 10.2971 49.3558 9.1283 49.3558 7.57684Z" fill="#1C52A0"/>
<g id="Group">
<path id="Vector_8" d="M56.1286 7.4442L58.6013 4.55761L59.1126 3.95543C59.1126 3.95543 59.0268 3.87794 58.8998 3.75202C58.3571 3.22087 57.3806 3.36132 56.8363 3.97965C56.3546 4.52855 54.3372 6.89368 54.3372 6.89368C54.1838 7.05997 54.0815 7.32796 54.0815 7.52815C54.0815 7.79453 54.2003 8.02862 54.3372 8.21266L57.3047 11.6514C57.4746 11.8677 57.7485 11.9856 58.0041 11.9856H60.0001L58.7382 10.4664L56.1286 7.44581V7.4442Z" fill="#1C52A0"/>
<path id="Vector_9" d="M54.0387 0H53.1001V11.9839H54.9756V0.918606C54.9756 0.400377 54.5665 0 54.037 0H54.0387Z" fill="#1C52A0"/>
</g>
</g>
<defs>
<clipPath id="clip0_406_6043">
<rect width="60" height="12" fill="white"/>
</clipPath>
</defs>
</svg>
