<svg width="28" height="12" viewBox="0 0 28 12" fill="none" xmlns="http://www.w3.org/2000/svg">
<g id="Layer_1" clip-path="url(#clip0_400_8193)">
<path id="Vector" d="M19.9857 4.19004C19.9371 4.0399 19.8801 3.89137 19.8181 3.74284C19.5866 3.19394 19.2747 2.6854 18.889 2.22852L16.4843 4.5436C17.1702 5.60912 17.0327 7.03142 16.0735 7.95487C15.1126 8.87993 13.6369 9.0107 12.5302 8.3504L10.1255 10.6655C10.6017 11.0368 11.1283 11.3371 11.6984 11.5599C12.4447 11.8521 13.2345 11.999 14.0428 11.999C14.851 11.999 15.6409 11.8505 16.3871 11.5599C17.1618 11.258 17.8544 10.814 18.4497 10.2425L24.3876 4.52584C21.277 7.52059 19.9857 4.19004 19.9857 4.19004Z" fill="#2B82D8"/>
<path id="Vector_2" d="M27.5001 1.53084C26.1888 0.268365 24.0608 0.268365 22.7494 1.53084L19.9875 4.1898C19.9875 4.1898 21.2788 7.52035 24.3895 4.5256L27.5001 1.53084Z" fill="#1C52A0"/>
<path id="Vector_3" d="M8.01417 7.81057C8.0628 7.96072 8.11982 8.10924 8.18186 8.25777C8.41328 8.80667 8.72518 9.31522 9.11087 9.7721L11.5156 7.45702C10.8297 6.3915 10.9672 4.96919 11.9264 4.04574C12.8873 3.12068 14.363 2.98991 15.4697 3.65021L17.8744 1.33513C17.3982 0.96381 16.8716 0.663527 16.3015 0.440737C15.5536 0.148527 14.7654 0 13.9555 0C13.1472 0 12.3574 0.148527 11.6112 0.439123C10.8364 0.74102 10.1439 1.18499 9.54855 1.75649L3.6106 7.47477C6.72127 4.48002 8.0125 7.81057 8.0125 7.81057H8.01417Z" fill="#2B82D8"/>
<path id="Vector_4" d="M0.5 10.4695C1.81135 11.732 3.93935 11.732 5.2507 10.4695L8.01258 7.81058C8.01258 7.81058 6.72135 4.48003 3.61068 7.47478L0.5 10.4695Z" fill="#1C52A0"/>
</g>
<defs>
<clipPath id="clip0_400_8193">
<rect width="27" height="12" fill="white" transform="translate(0.5)"/>
</clipPath>
</defs>
</svg>
