<svg width="169" height="35" viewBox="0 0 169 35" fill="none" xmlns="http://www.w3.org/2000/svg">
<g id="nrf-logo 1" clip-path="url(#clip0_355_8065)">
<g id="Group">
<g id="Group_2">
<g id="Group_3">
<g id="Group_4">
<g id="Group_5">
<path id="Vector" d="M99.8871 0.393555H101.723L105.961 6.05226V0.393555H107.926V9.58458H106.232L101.852 3.74267V9.58458H99.8892V0.393555H99.8871Z" fill="black"/>
<path id="Vector_2" d="M109.496 7.56246V7.5357C109.496 6.00009 110.646 5.28992 112.287 5.28992C112.984 5.28992 113.489 5.40931 113.981 5.57811V5.46078C113.981 4.63327 113.476 4.17424 112.494 4.17424C111.744 4.17424 111.216 4.31833 110.581 4.55505L110.091 3.03179C110.853 2.69009 111.602 2.46777 112.779 2.46777C113.851 2.46777 114.627 2.75596 115.117 3.25411C115.634 3.77901 115.867 4.55505 115.867 5.49989V9.58387H113.967V8.82224C113.488 9.3595 112.83 9.71561 111.874 9.71561C110.567 9.71561 109.496 8.95398 109.496 7.56246ZM114.005 7.10343V6.74937C113.669 6.59293 113.229 6.48795 112.751 6.48795C111.91 6.48795 111.394 6.82965 111.394 7.45954V7.4863C111.394 8.02562 111.833 8.34056 112.467 8.34056C113.385 8.33644 114.005 7.82389 114.005 7.10343Z" fill="black"/>
<path id="Vector_3" d="M117.795 7.58929V4.25458H116.969V2.54812H117.795V0.749023H119.76V2.54812H121.389V4.25458H119.76V7.26199C119.76 7.72103 119.955 7.9454 120.395 7.9454C120.757 7.9454 121.079 7.85277 121.363 7.69633V9.29781C120.95 9.54688 120.472 9.70539 119.813 9.70539C118.61 9.70333 117.795 9.21753 117.795 7.58929Z" fill="black"/>
<path id="Vector_4" d="M122.858 0H124.926V1.77233H122.858V0ZM122.909 2.54632H124.874V9.58419H122.909V2.54632Z" fill="black"/>
<path id="Vector_5" d="M126.261 6.10586V6.0791C126.261 4.05769 127.864 2.41504 130.021 2.41504C132.167 2.41504 133.755 4.03093 133.755 6.05234V6.0791C133.755 8.10051 132.152 9.7411 129.995 9.7411C127.85 9.74316 126.261 8.12727 126.261 6.10586ZM131.816 6.10586V6.0791C131.816 5.04163 131.079 4.13591 129.995 4.13591C128.871 4.13591 128.198 5.01487 128.198 6.05234V6.0791C128.198 7.11656 128.935 8.02228 130.019 8.02228C131.146 8.02228 131.816 7.14332 131.816 6.10586Z" fill="black"/>
<path id="Vector_6" d="M135.142 2.54678H137.108V3.54513C137.559 2.95436 138.141 2.41504 139.135 2.41504C140.62 2.41504 141.487 3.41339 141.487 5.02723V9.5826H139.522V5.65917C139.522 4.71434 139.083 4.22854 138.333 4.22854C137.584 4.22854 137.105 4.71434 137.105 5.65917V9.58466H135.14V2.54678H135.142Z" fill="black"/>
<path id="Vector_7" d="M142.756 7.56246V7.5357C142.756 6.00009 143.906 5.28992 145.547 5.28992C146.244 5.28992 146.748 5.40931 147.241 5.57811V5.46078C147.241 4.63327 146.736 4.17424 145.754 4.17424C145.004 4.17424 144.475 4.31833 143.841 4.55505L143.351 3.03179C144.113 2.69009 144.862 2.46777 146.039 2.46777C147.111 2.46777 147.887 2.75596 148.377 3.25411C148.894 3.77901 149.127 4.55505 149.127 5.49989V9.58387H147.227V8.82224C146.748 9.3595 146.09 9.71561 145.134 9.71561C143.827 9.71561 142.756 8.95398 142.756 7.56246ZM147.265 7.10343V6.74937C146.929 6.59293 146.489 6.48795 146.011 6.48795C145.17 6.48795 144.654 6.82965 144.654 7.45954V7.4863C144.654 8.02562 145.093 8.34056 145.727 8.34056C146.645 8.33644 147.265 7.82389 147.265 7.10343Z" fill="black"/>
<path id="Vector_8" d="M150.883 0H152.848V9.58419H150.883V0Z" fill="black"/>
<path id="Vector_9" d="M99.8871 13.0215H104.022C105.173 13.0215 106.064 13.3488 106.657 13.954C107.162 14.4665 107.433 15.189 107.433 16.0557V16.0824C107.433 17.5666 106.645 18.497 105.495 18.9313L107.705 22.2146H105.379L103.44 19.273H101.877V22.2146H99.8871V13.0215ZM103.892 17.4863C104.861 17.4863 105.418 16.9614 105.418 16.1853V16.1586C105.418 15.292 104.824 14.8453 103.854 14.8453H101.877V17.4842H103.892V17.4863Z" fill="black"/>
<path id="Vector_10" d="M108.537 18.7338V18.707C108.537 16.698 109.945 15.043 111.961 15.043C114.275 15.043 115.334 16.8688 115.334 18.8635C115.334 19.022 115.32 19.2052 115.308 19.3884H110.488C110.683 20.2941 111.303 20.7675 112.182 20.7675C112.84 20.7675 113.318 20.5576 113.861 20.045L114.986 21.0557C114.339 21.8709 113.41 22.369 112.156 22.369C110.073 22.3711 108.537 20.8869 108.537 18.7338ZM113.422 18.143C113.306 17.2496 112.788 16.6465 111.961 16.6465C111.147 16.6465 110.618 17.2373 110.462 18.143H113.422Z" fill="black"/>
<path id="Vector_11" d="M116.979 20.2182V16.8835H116.152V15.177H116.979V13.3779H118.944V15.177H120.573V16.8835H118.944V19.8909C118.944 20.3499 119.139 20.5743 119.578 20.5743C119.941 20.5743 120.263 20.4817 120.546 20.3252V21.9267C120.133 22.1758 119.655 22.3343 118.997 22.3343C117.793 22.3322 116.979 21.8464 116.979 20.2182Z" fill="black"/>
<path id="Vector_12" d="M121.557 20.1914V20.1646C121.557 18.629 122.708 17.9188 124.349 17.9188C125.046 17.9188 125.55 18.0382 126.042 18.207V18.0897C126.042 17.2622 125.538 16.8031 124.556 16.8031C123.806 16.8031 123.277 16.9472 122.643 17.184L122.153 15.6607C122.915 15.319 123.664 15.0967 124.841 15.0967C125.913 15.0967 126.689 15.3849 127.179 15.883C127.696 16.4079 127.929 17.184 127.929 18.1288V22.2128H126.028V21.4511C125.55 21.9884 124.892 22.3445 123.936 22.3445C122.631 22.3445 121.557 21.5829 121.557 20.1914ZM126.067 19.7323V19.3783C125.731 19.2218 125.291 19.1169 124.813 19.1169C123.972 19.1169 123.456 19.4586 123.456 20.0884V20.1152C123.456 20.6545 123.895 20.9695 124.529 20.9695C125.447 20.9654 126.067 20.4549 126.067 19.7323Z" fill="black"/>
<path id="Vector_13" d="M129.61 12.6289H131.678V14.4012H129.61V12.6289ZM129.661 15.1752H131.626V22.2131H129.661V15.1752Z" fill="black"/>
<path id="Vector_14" d="M133.461 12.6289H135.426V22.2131H133.461V12.6289Z" fill="black"/>
<path id="Vector_15" d="M99.8871 25.6523H106.775V27.4905H101.877V29.4461H106.191V31.2843H101.877V34.8413H99.8871V25.6523Z" fill="black"/>
<path id="Vector_16" d="M107.518 31.3627V31.3359C107.518 29.3269 108.926 27.6719 110.942 27.6719C113.256 27.6719 114.315 29.4977 114.315 31.4924C114.315 31.6509 114.301 31.8341 114.289 32.0173H109.469C109.664 32.923 110.284 33.3965 111.163 33.3965C111.821 33.3965 112.299 33.1865 112.842 32.6739L113.967 33.6846C113.32 34.4998 112.391 34.9979 111.137 34.9979C109.056 35 107.518 33.5179 107.518 31.3627ZM112.403 30.7719C112.287 29.8785 111.769 29.2754 110.942 29.2754C110.128 29.2754 109.599 29.8662 109.443 30.7719H112.403Z" fill="black"/>
<path id="Vector_17" d="M115.403 31.3375V31.3108C115.403 28.96 116.914 27.6735 118.555 27.6735C119.602 27.6735 120.249 28.1593 120.713 28.7233V25.2568H122.678V34.841H120.713V33.8303C120.234 34.487 119.576 34.9728 118.555 34.9728C116.94 34.9728 115.403 33.6862 115.403 31.3375ZM120.739 31.3375V31.3108C120.739 30.1416 119.977 29.3676 119.06 29.3676C118.142 29.3676 117.366 30.1292 117.366 31.3108V31.3375C117.366 32.5067 118.142 33.2807 119.06 33.2807C119.977 33.2807 120.739 32.5047 120.739 31.3375Z" fill="black"/>
<path id="Vector_18" d="M124.09 31.3627V31.3359C124.09 29.3269 125.498 27.6719 127.513 27.6719C129.827 27.6719 130.886 29.4977 130.886 31.4924C130.886 31.6509 130.872 31.8341 130.86 32.0173H126.04C126.235 32.923 126.855 33.3965 127.734 33.3965C128.392 33.3965 128.871 33.1865 129.413 32.6739L130.538 33.6846C129.892 34.4998 128.962 34.9979 127.708 34.9979C125.625 35 124.09 33.5179 124.09 31.3627ZM128.972 30.7719C128.856 29.8785 128.338 29.2754 127.511 29.2754C126.697 29.2754 126.168 29.8662 126.012 30.7719H128.972Z" fill="black"/>
<path id="Vector_19" d="M132.292 27.8056H134.257V29.2239C134.658 28.2523 135.305 27.6224 136.467 27.6738V29.7611H136.364C135.059 29.7611 134.257 30.5619 134.257 32.2416V34.8414H132.292V27.8056Z" fill="black"/>
<path id="Vector_20" d="M137.01 32.8203V32.7935C137.01 31.2579 138.161 30.5477 139.802 30.5477C140.499 30.5477 141.003 30.6671 141.495 30.8359V30.7186C141.495 29.8911 140.991 29.432 140.009 29.432C139.259 29.432 138.73 29.5761 138.096 29.8129L137.606 28.2896C138.368 27.9479 139.117 27.7256 140.294 27.7256C141.366 27.7256 142.142 28.0138 142.632 28.5119C143.149 29.0368 143.382 29.8129 143.382 30.7577V34.8417H141.481V34.0801C141.003 34.6173 140.345 34.9734 139.389 34.9734C138.082 34.9734 137.01 34.2139 137.01 32.8203ZM141.52 32.3612V32.0072C141.184 31.8507 140.744 31.7458 140.266 31.7458C139.425 31.7458 138.909 32.0875 138.909 32.7174V32.7441C138.909 33.2834 139.348 33.5984 139.982 33.5984C140.9 33.5963 141.52 33.0838 141.52 32.3612Z" fill="black"/>
<path id="Vector_21" d="M145.308 32.8471V29.5124H144.482V27.8059H145.308V26.0068H147.273V27.8059H148.902V29.5124H147.273V32.5198C147.273 32.9788 147.468 33.2032 147.907 33.2032C148.27 33.2032 148.592 33.1106 148.876 32.9541V34.5556C148.462 34.8047 147.984 34.9632 147.326 34.9632C146.122 34.9611 145.308 34.4753 145.308 32.8471Z" fill="black"/>
<path id="Vector_22" d="M150.371 25.2568H152.439V27.0292H150.371V25.2568ZM150.421 27.8052H152.386V34.8431H150.421V27.8052Z" fill="black"/>
<path id="Vector_23" d="M153.774 31.3627V31.3359C153.774 29.3145 155.376 27.6719 157.534 27.6719C159.679 27.6719 161.267 29.2878 161.267 31.3092V31.3359C161.267 33.3573 159.665 34.9979 157.508 34.9979C155.362 35 153.774 33.3862 153.774 31.3627ZM159.331 31.3627V31.3359C159.331 30.2985 158.593 29.3927 157.51 29.3927C156.385 29.3927 155.713 30.2717 155.713 31.3092V31.3359C155.713 32.3734 156.45 33.2791 157.534 33.2791C158.658 33.2812 159.331 32.4002 159.331 31.3627Z" fill="black"/>
<path id="Vector_24" d="M162.657 27.8056H164.622V28.8039C165.074 28.2131 165.655 27.6738 166.65 27.6738C168.135 27.6738 169.002 28.6722 169.002 30.286V34.8414H167.037V30.918C167.037 29.9731 166.597 29.4873 165.848 29.4873C165.098 29.4873 164.62 29.9731 164.62 30.918V34.8434H162.655V27.8056H162.657Z" fill="black"/>
</g>
</g>
</g>
</g>
</g>
<g id="Group_6">
<path id="Vector_25" d="M20.5763 18.6328C15.3881 9.69085 9.90626 0.388672 9.90626 0.388672H9.35321H0.553049H0V34.8823H9.35321V15.9794L20.0232 34.8843C20.0232 34.8843 20.2379 34.8823 20.5763 34.8782V34.8843H29.9295V0.388672H20.5763V18.6328Z" fill="black"/>
<path id="Vector_26" d="M92.9486 8.38785V0.388672H76.3045H72.5041H66.9513V34.8843H76.3045V23.4352H89.2171V15.436H76.3045V8.38785H92.9486Z" fill="black"/>
<g id="Group_7">
<g id="Group_8">
<g id="Group_9">
<path id="Vector_27" d="M64.7999 34.8908L57.0573 22.4536C57.2862 22.3074 59.1256 20.5454 60.3168 19.1415C61.9516 17.2148 63.5905 14.792 63.7364 11.2905C63.9775 5.50831 60.015 0.176896 51.1358 0.347748H34.1088V34.8414H43.462V8.30576H50.4105C53.3844 8.30576 54.6506 9.38645 54.6506 11.2349C54.6506 12.2189 54.2697 13.5219 50.5929 17.2498C49.1991 18.6639 46.0854 21.6796 46.0854 21.6796L46.0733 21.6919L54.3528 34.8887" fill="black"/>
</g>
</g>
</g>
<g id="Group_10">
<g id="Group_11">
<path id="Vector_28" d="M77.4269 32.8197V32.8074C77.4269 31.6773 78.3304 30.7324 79.475 30.7324C80.6196 30.7324 81.5109 31.667 81.5109 32.7971V32.8094C81.5109 33.9395 80.6074 34.8843 79.4628 34.8843C78.3182 34.8843 77.4269 33.9498 77.4269 32.8197ZM81.2739 32.8094V32.7971C81.2739 31.7822 80.5021 30.963 79.475 30.963C78.4418 30.963 77.6639 31.7946 77.6639 32.8094V32.8218C77.6639 33.8366 78.4378 34.6558 79.4649 34.6558C80.496 34.6558 81.2739 33.8242 81.2739 32.8094ZM78.6282 31.6443H79.5925C79.8862 31.6443 80.1111 31.7308 80.263 31.8852C80.3826 32.0045 80.4433 32.1713 80.4433 32.3668V32.3792C80.4433 32.7353 80.2509 32.9576 79.9754 33.0605L80.5061 33.851H79.947L79.4851 33.1408H79.1063V33.851H78.6262V31.6443H78.6282ZM79.5864 32.723C79.8295 32.723 79.9592 32.5912 79.9592 32.408V32.3957C79.9592 32.1836 79.8133 32.0745 79.5763 32.0745H79.1083V32.723H79.5864Z" fill="black"/>
</g>
</g>
</g>
</g>
<defs>
<clipPath id="clip0_355_8065">
<rect width="169" height="35" fill="white"/>
</clipPath>
</defs>
</svg>
